<?xml version="1.0" encoding="UTF-8" standalone="no"?>
<!-- Created with Inkscape (http://www.inkscape.org/) -->

<svg
   xmlns:dc="http://purl.org/dc/elements/1.1/"
   xmlns:cc="http://creativecommons.org/ns#"
   xmlns:rdf="http://www.w3.org/1999/02/22-rdf-syntax-ns#"
   xmlns:svg="http://www.w3.org/2000/svg"
   xmlns="http://www.w3.org/2000/svg"
   xmlns:sodipodi="http://sodipodi.sourceforge.net/DTD/sodipodi-0.dtd"
   xmlns:inkscape="http://www.inkscape.org/namespaces/inkscape"
   version="1.1"
   id="svg10"
   width="559.92255"
   height="560.21429"
   viewBox="0 0 559.92255 560.21429"
   sodipodi:docname="bulb.svg"
   inkscape:version="0.92.4 (5da689c313, 2019-01-14)">
  <metadata
     id="metadata16">
    <rdf:RDF>
      <cc:Work
         rdf:about="">
        <dc:format>image/svg+xml</dc:format>
        <dc:type
           rdf:resource="http://purl.org/dc/dcmitype/StillImage" />
        <dc:title></dc:title>
      </cc:Work>
    </rdf:RDF>
  </metadata>
  <defs
     id="defs14" />
  <sodipodi:namedview
     pagecolor="#ffffff"
     bordercolor="#666666"
     borderopacity="1"
     objecttolerance="10"
     gridtolerance="10"
     guidetolerance="10"
     inkscape:pageopacity="0"
     inkscape:pageshadow="2"
     inkscape:window-width="1920"
     inkscape:window-height="1017"
     id="namedview12"
     showgrid="false"
     inkscape:zoom="1.4520548"
     inkscape:cx="275.4251"
     inkscape:cy="217.67599"
     inkscape:window-x="-8"
     inkscape:window-y="-8"
     inkscape:window-maximized="1"
     inkscape:current-layer="g20" />
  <g
     id="g20"
     transform="translate(-20.442824,-11.442824)">
    <path
       style="fill:#fefdfa"
       d="m 105.36792,426.98113 v -292 l 189.12265,-80.57547 198.07547,64.73585 45.45283,179.74528 -95.03774,201.09434 -149.86792,48.20755 -104.4151,-14.46226 z"
       id="path24"
       inkscape:connector-curvature="0"
       sodipodi:nodetypes="ccccccccc" />
    <path
       style="fill:#fcb725"
       d="M 275.73129,571.015 C 219.70708,565.57638 168.77222,545.07681 125,510.35074 114.06587,501.6763 90.323703,477.93413 81.649264,467 50.222597,427.38668 30.686898,382.48993 22.86091,331.89318 c -3.224115,-20.84462 -3.224115,-59.94174 0,-80.78636 C 30.686898,200.51007 50.222597,155.61332 81.649264,116 90.323703,105.06587 114.06587,81.323703 125,72.649264 164.61332,41.222597 209.51007,21.686898 260.10682,13.86091 c 20.84462,-3.224115 59.94174,-3.224115 80.78636,0 50.59675,7.825988 95.4935,27.361687 135.10682,58.788354 10.93413,8.674439 34.6763,32.416606 43.35074,43.350736 31.42666,39.61332 50.96236,84.51007 58.78835,135.10682 1.87552,12.12567 2.22625,18.48923 2.22625,40.39318 0,21.90395 -0.35073,28.26751 -2.22625,40.39318 C 570.3131,382.48993 550.7774,427.38668 519.35074,467 510.6763,477.93413 486.93413,501.6763 476,510.35074 c -39.50653,31.34195 -85.07305,51.19704 -134.59322,58.64747 -15.71585,2.36449 -50.94856,3.44643 -65.67549,2.01679 z m 76.23023,-59.47744 c 7.42791,-7.11806 4.7647,-18.85226 -4.88726,-21.5335 -4.85442,-1.34853 -88.39313,-1.32096 -93.25998,0.0308 -4.2263,1.17382 -8.34599,5.55655 -9.29818,9.89188 -0.98,4.46191 2.38032,11.2785 6.59202,13.37226 3.05918,1.52081 8.02016,1.66241 50.57695,1.44362 l 47.18507,-0.24259 3.09138,-2.96244 z m 4.33959,-32.93606 c 5.72756,-3.88195 7.32,-11.4303 3.67326,-17.41168 C 356.18885,454.98083 356.37461,455 299.98246,455 c -56.37393,0 -55.09958,-0.13599 -59.02294,6.29855 -4.06576,6.66806 -1.00752,15.93709 6.07511,18.41272 2.57186,0.89895 16.74405,1.15679 54.96537,1 48.73711,-0.19994 51.65028,-0.31312 54.30111,-2.10977 z m 8.46358,-36.02466 c 3.45505,-3.16632 3.73531,-3.84015 3.73531,-8.98077 0,-4.94324 -0.36135,-5.91901 -3.26877,-8.82684 l -3.26877,-3.26923 -60.97134,-0.27252 -60.97134,-0.27252 -3.5716,3.27312 c -6.34953,5.81892 -5.68516,15.67942 1.35045,20.0432 2.44762,1.51811 8.36232,1.678 62.96606,1.70211 l 60.26468,0.0266 3.73532,-3.42316 z M 343,407.99335 c 8.88678,-2.50065 25.59639,-10.36479 32.18064,-15.14536 9.14856,-6.64241 13.97089,-14.96636 26.70953,-46.10413 10.00291,-24.45064 11.66155,-27.77289 20.09184,-40.24386 14.31511,-21.17643 19.61948,-36.16913 20.69711,-58.5 1.42899,-29.61185 -5.56159,-60.43497 -18.93317,-83.48085 -9.95519,-17.15773 -25.75274,-33.95708 -41.94704,-44.60709 -11.14004,-7.32613 -16.39268,-10.06081 -27.73068,-14.4374 -17.46506,-6.7417 -33.13574,-9.580796 -52.82768,-9.570922 -16.34726,0.0082 -29.10667,2.048382 -44.34567,7.090722 -23.38138,7.73651 -42.24071,19.25418 -58.89488,35.96796 -24.97526,25.06465 -37.94063,55.47848 -39.69949,93.12604 -1.36172,29.14689 4.23456,48.26502 21.4891,73.41154 8.85572,12.90621 11.56845,18.52691 21.23576,44 12.18199,32.0992 18.21123,41.42497 29.12553,45.05012 14.01394,4.65469 27.71886,-1.62952 38.04262,-17.44394 13.14009,-20.12861 19.74375,-41.75049 20.12254,-65.88576 L 288.5,299.5 h 10.39906 10.39905 l -0.1612,21 c -0.0887,11.55 0.27306,23.925 0.80383,27.5 0.82435,5.55237 1.48004,6.97382 4.49747,9.75 4.03566,3.71301 9.50891,4.36295 14.59452,1.73307 5.66567,-2.92983 6.28794,-5.7933 5.52327,-25.41601 -0.76942,-19.74452 0.36586,-33.25776 3.45182,-41.0869 2.51598,-6.38309 2.50812,-9.62165 -0.0334,-13.79034 C 334.40553,273.33623 332.33009,273 299.76652,273 c -33.06751,0 -34.38767,0.25737 -38.1098,7.42976 -1.81661,3.50051 -1.85275,4.21674 -0.55049,10.90837 0.77969,4.00646 1.35448,12.66918 1.30459,19.66187 -0.11663,16.3463 -2.60882,26.80704 -9.88707,41.5 -5.85137,11.81246 -10.47383,17.84044 -13.28276,17.32159 -2.33035,-0.43045 -6.81375,-9.7514 -14.34429,-29.82159 -9.57023,-25.50635 -13.22907,-33.11557 -22.41012,-46.60586 -14.83883,-21.80362 -17.47207,-28.98332 -18.23767,-49.72619 -0.57492,-15.57699 0.73958,-27.88184 4.29107,-40.16795 17.64928,-61.05642 87.3882,-96.78413 149.37735,-76.52702 49.8245,16.28189 79.06116,58.12973 79.07865,113.18905 0.007,23.07916 -3.03384,32.26923 -18.17185,54.91339 -6.02964,9.01941 -10.04859,16.51292 -14.21257,26.5 -19.71571,47.28695 -20.08878,47.97932 -28.62155,53.11801 -15.30411,9.2166 -32.04149,12.45904 -43.45535,8.41838 -7.11285,-2.51804 -9.64596,-2.62274 -13.62854,-0.56326 -9.66768,4.99935 -8.89468,17.88986 1.38517,23.09906 11.20991,5.68049 27.64902,6.5834 42.70871,2.34574 z"
       id="path22"
       inkscape:connector-curvature="0" />
  </g>
</svg>
