<?xml version="1.0" encoding="UTF-8" standalone="no"?>
<!-- Created with Inkscape (http://www.inkscape.org/) -->

<svg
   xmlns:dc="http://purl.org/dc/elements/1.1/"
   xmlns:cc="http://creativecommons.org/ns#"
   xmlns:rdf="http://www.w3.org/1999/02/22-rdf-syntax-ns#"
   xmlns:svg="http://www.w3.org/2000/svg"
   xmlns="http://www.w3.org/2000/svg"
   xmlns:xlink="http://www.w3.org/1999/xlink"
   xmlns:sodipodi="http://sodipodi.sourceforge.net/DTD/sodipodi-0.dtd"
   xmlns:inkscape="http://www.inkscape.org/namespaces/inkscape"
   version="1.1"
   id="svg26"
   width="681.1864"
   height="682.70093"
   viewBox="0 0 681.18641 682.70093"
   sodipodi:docname="camera.svg"
   inkscape:version="0.92.4 (5da689c313, 2019-01-14)">
  <metadata
     id="metadata32">
    <rdf:RDF>
      <cc:Work
         rdf:about="">
        <dc:format>image/svg+xml</dc:format>
        <dc:type
           rdf:resource="http://purl.org/dc/dcmitype/StillImage" />
        <dc:title></dc:title>
      </cc:Work>
    </rdf:RDF>
  </metadata>
  <defs
     id="defs30" />
  <sodipodi:namedview
     pagecolor="#ffffff"
     bordercolor="#666666"
     borderopacity="1"
     objecttolerance="10"
     gridtolerance="10"
     guidetolerance="10"
     inkscape:pageopacity="0"
     inkscape:pageshadow="2"
     inkscape:window-width="1920"
     inkscape:window-height="1017"
     id="namedview28"
     showgrid="false"
     inkscape:zoom="0.48889803"
     inkscape:cx="662.53776"
     inkscape:cy="274.43525"
     inkscape:window-x="-8"
     inkscape:window-y="-8"
     inkscape:window-maximized="1"
     inkscape:current-layer="g36" />
  <image
     sodipodi:absref="D:\Escritorio - Data Drive\camera-icon.png"
     xlink:href="camera-icon.png"
     y="-47.700047"
     x="-1254.6917"
     id="image34"
     preserveAspectRatio="none"
     height="682.66669"
     width="682.66669" />
  <g
     id="g36"
     transform="translate(-0.72542616,0.02876537)">
    <path
       style="fill:#fdfafb;stroke-width:1.33333337"
       d="M 59.299437,352.90396 137.40113,180.79097 350.01131,72.316386 532.24861,172.113 637.83053,345.67232 507.66103,574.19211 338.44068,614.68929 157.64972,552.49719 Z"
       id="path40"
       inkscape:connector-curvature="0"
       sodipodi:nodetypes="ccccccccc" />
    <path
       style="fill:#b71c31;stroke-width:1.33333337"
       d="M 303.33334,680.60306 C 157.9357,664.54666 37.265167,555.10469 7.4892604,412.28771 1.9534498,385.73577 0.72542616,372.85349 0.72542616,341.33334 c 0,-40.7491 4.04496174,-67.85662 15.46224384,-103.62103 C 57.942506,106.91617 173.6897,14.23079 311.33334,1.372363 422.74132,-9.0351744 536.05823,39.105561 606.69379,126.85116 c 39.79357,49.43274 64.57071,107.35722 73.49397,171.81552 2.29873,16.60513 2.29873,68.7282 0,85.33333 -10.57852,76.41537 -43.71852,144.42527 -96.15534,197.32998 -73.50647,74.16238 -176.91463,110.73409 -280.69908,99.27307 z M 504.69538,506.78522 c 6.69336,-3.27172 12.39172,-7.62036 20.30464,-15.49523 l 11,-10.94712 -0.012,-114.50476 -0.012,-114.50477 -3.85903,-6.66666 c -7.62732,-13.17657 -19.53347,-20.96402 -35.60309,-23.28693 -5.04874,-0.72981 -19.57128,-1.33881 -32.27232,-1.35333 l -23.09383,-0.0264 -8.42084,-17.66667 c -8.88388,-18.63811 -11.08424,-21.45305 -20.7269,-26.5162 l -6,-3.15047 -59.81236,-0.38558 c -68.48755,-0.44152 -69.63027,-0.30743 -79.98011,9.38521 -4.67429,4.37748 -7.71102,9.30791 -13.34504,21.66704 l -7.29373,16 -30.45106,0.79961 c -26.77049,0.70296 -31.34512,1.14554 -37.84817,3.66163 -10.6002,4.10129 -18.24364,10.22632 -24.13371,19.3394 l -5.13582,7.94612 v 114.19381 114.1938 l 6.7947,7.62348 c 3.73708,4.19292 10.7425,10.44057 15.56758,13.88368 16.63846,11.87296 2.4308,11.00088 173.66642,10.65989 l 151.36203,-0.30141 z M 317.63936,459.97988 c -16.9488,-4.44082 -30.07002,-12.22306 -43.83536,-25.99891 -10.39647,-10.40437 -13.08639,-14.05774 -18.2303,-24.7598 -8.13757,-16.93048 -10.7565,-29.53732 -9.9084,-47.69642 1.20212,-25.73926 9.80758,-45.01525 28.3595,-63.52453 12.36994,-12.34153 21.30689,-17.99253 37.62693,-23.79228 10.95265,-3.8923 12.84645,-4.15136 30.34828,-4.15136 17.50183,0 19.39563,0.25906 30.34828,4.15136 16.32004,5.79975 25.25699,11.45075 37.62694,23.79228 18.55192,18.50928 27.15737,37.78527 28.35949,63.52453 0.84811,18.1591 -1.77083,30.76594 -9.9084,47.69642 -5.14391,10.70206 -7.83383,14.35543 -18.23029,24.7598 -13.94184,13.95246 -26.99126,21.61881 -44.36034,26.06107 -13.62033,3.4835 -34.76816,3.45622 -48.19633,-0.0621 z m 40.10292,-31.30209 c 11.84007,-3.08395 20.78812,-8.28452 29.56571,-17.18347 16.92305,-17.15707 22.63297,-37.23863 17.28012,-60.77336 -5.25643,-23.11072 -25.80688,-42.94122 -49.65372,-47.91418 -32.96574,-6.87457 -66.68061,13.94843 -75.15669,46.41831 -6.07606,23.27603 -0.13405,45.33215 16.76552,62.23171 16.48016,16.48017 39.34328,22.91369 61.19906,17.22099 z"
       id="path38"
       inkscape:connector-curvature="0" />
  </g>
</svg>
