<?xml version="1.0" encoding="UTF-8" standalone="no"?>
<!-- Created with Inkscape (http://www.inkscape.org/) -->

<svg
   xmlns:dc="http://purl.org/dc/elements/1.1/"
   xmlns:cc="http://creativecommons.org/ns#"
   xmlns:rdf="http://www.w3.org/1999/02/22-rdf-syntax-ns#"
   xmlns:svg="http://www.w3.org/2000/svg"
   xmlns="http://www.w3.org/2000/svg"
   xmlns:xlink="http://www.w3.org/1999/xlink"
   xmlns:sodipodi="http://sodipodi.sourceforge.net/DTD/sodipodi-0.dtd"
   xmlns:inkscape="http://www.inkscape.org/namespaces/inkscape"
   version="1.1"
   id="svg10"
   width="1333.3333"
   height="1333.3333"
   viewBox="0 0 1333.3333 1333.3333"
   sodipodi:docname="WaterVectorClean2.svg"
   inkscape:version="0.92.4 (5da689c313, 2019-01-14)">
  <metadata
     id="metadata16">
    <rdf:RDF>
      <cc:Work
         rdf:about="">
        <dc:format>image/svg+xml</dc:format>
        <dc:type
           rdf:resource="http://purl.org/dc/dcmitype/StillImage" />
        <dc:title></dc:title>
      </cc:Work>
    </rdf:RDF>
  </metadata>
  <defs
     id="defs14" />
  <sodipodi:namedview
     pagecolor="#ffffff"
     bordercolor="#666666"
     borderopacity="1"
     objecttolerance="10"
     gridtolerance="10"
     guidetolerance="10"
     inkscape:pageopacity="0"
     inkscape:pageshadow="2"
     inkscape:window-width="1920"
     inkscape:window-height="1017"
     id="namedview12"
     showgrid="false"
     inkscape:zoom="0.31800002"
     inkscape:cx="1134.7773"
     inkscape:cy="1114.7409"
     inkscape:window-x="-8"
     inkscape:window-y="-8"
     inkscape:window-maximized="1"
     inkscape:current-layer="g20" />
  <image
     sodipodi:absref="D:\Escritorio - Data Drive\WaterV.png"
     xlink:href="WaterV.png"
     y="0"
     x="0"
     id="image18"
     preserveAspectRatio="none"
     height="1333.3333"
     width="1333.3333" />
  <g
     id="g20">
    <path
       style="fill:#fdfefe;stroke-width:0.8477453"
       d="M 317.61005,655.66036 V 147.79873 H 671.38363 1025.1572 V 655.66036 1163.522 H 671.38363 317.61005 Z"
       id="path28"
       inkscape:connector-curvature="0" />
    <path
       style="fill:#4cc2fd;stroke-width:1.33333325"
       d="m 629.99998,1331.9663 c -95.88987,-7.1849 -173.3891,-27.3352 -253.34303,-65.8709 C 282.12427,1220.5332 197.78769,1151.2478 134.71678,1067.3333 64.775934,974.2785 19.976918,863.55235 6.6125029,750.70817 5.1767651,738.58533 3.2650053,723.86665 2.3641477,717.99998 0.139189,703.51036 0.12708162,629.61621 2.3473261,615.33332 3.2592866,609.46665 5.212612,594.46665 6.688049,581.99999 18.039764,486.08397 54.391213,387.11023 109.03779,303.33333 211.68583,145.96692 376.31039,39.061774 561.68525,9.3896862 c 75.40561,-12.0698255 134.55719,-12.0698255 209.9628,0 C 1014.1885,48.212005 1216.7513,218.53446 1296.032,450.31146 c 15.1646,44.33387 25.5745,89.11405 30.6132,131.68853 1.4755,12.46666 3.4288,27.46666 4.3408,33.33333 2.2215,14.291 2.2082,88.18062 -0.019,102.66666 -0.9017,5.86667 -2.8467,20.86667 -4.3222,33.33333 -2.8767,24.30692 -9.3077,58.12659 -15.973,84 -5.6921,22.09574 -20.921,67.06861 -29.9752,88.52067 -73.9608,175.23442 -219.151,311.11272 -397.68849,372.18252 -81.54477,27.8929 -177.81361,41.564 -253.00853,35.9298 z m 90.52163,-205.1251 c 102.56308,-18.503 187.29369,-81.625 232.90503,-173.50789 23.75906,-47.86197 34.68442,-98.7039 32.80636,-152.66666 -0.43388,-12.46667 -1.7183,-28.66667 -2.85429,-36 C 978.86327,735.51729 968.50512,700.8139 958.25359,680.48877 944.57806,653.37505 870.05598,529.79791 753.32694,340.66666 669.70076,205.17059 668.95786,203.99815 666.74997,204.0307 c -1.26888,0.0187 -9.6928,12.39833 -21.54809,31.66667 -10.70563,17.39977 -40.94403,66.43596 -67.19644,108.96929 -130.72714,211.79991 -199.80445,327.06855 -207.44749,346.16563 -42.16037,105.34289 -26.95903,222.41246 40.62224,312.84281 5.88799,7.8787 19.13116,22.7914 29.42928,33.1393 50.70277,50.948 112.40476,81.7359 184.05718,91.8406 20.78847,2.9317 75.2646,1.9009 95.85496,-1.8138 z m -77.18829,-85.566 c -86.12459,-9.7088 -158.772,-64.29577 -190.67884,-143.27522 -10.51334,-26.02386 -17.71209,-64.316 -16.38872,-87.17633 1.02407,-17.69036 9.72922,-30.96256 24.90436,-37.9702 4.81194,-2.22208 8.648,-2.83287 17.49653,-2.78586 13.90524,0.0739 21.79558,3.60574 31.0495,13.89832 7.44785,8.28382 9.89041,15.41407 10.97362,32.03407 2.18752,33.56319 12.64398,61.94237 31.68714,86 26.32164,33.25266 63.03682,52.07348 107.77135,55.24537 20.03139,1.42032 26.76908,3.851 36.11155,13.02759 8.71469,8.55993 12.24788,17.13541 12.24788,29.72703 0,12.59163 -3.53319,21.16713 -12.24788,29.72703 -8.82081,8.6642 -16.85767,11.8829 -30.86567,12.3614 -6.26678,0.2141 -16.19416,-0.1518 -22.06082,-0.8132 z"
       id="path24"
       inkscape:connector-curvature="0" />
    <path
       style="fill:#3b9acd;stroke-width:1.33333325"
       d="M 570.66665,1325.3046 C 501.78688,1315.257 436.3475,1294.7991 372.66666,1263.4051 302.82201,1228.9725 251.68118,1192.0874 195.29924,1135.4797 155.67025,1095.692 127.61304,1060.38 99.83657,1015.3333 84.13307,989.86602 64.03995,950.69879 52.6398,923.33331 44.789279,904.48854 28.475913,857.91585 26.090275,847.53762 25.260683,843.92866 40.683736,828.28514 339.60887,529.53751 512.52399,356.72507 655.1427,214.43313 656.53936,213.33319 c 2.48177,-1.9545 2.48662,-1.89785 0.21417,2.4977 -1.27887,2.47365 -10.75808,18.07365 -21.06492,34.66666 -124.9491,201.15593 -236.51679,385.01475 -257.68078,424.64698 -12.58297,23.56321 -22.95335,56.80953 -28.32309,90.80088 -3.57956,22.6591 -3.1743,72.87108 0.77525,96.05457 21.93441,128.75308 115.32629,229.98352 240.33102,260.50252 26.38545,6.4418 45.20425,8.6069 75.20897,8.6529 28.22218,0.043 42.05544,-1.3221 68,-6.7115 35.82548,-7.4419 79.06764,-25.6894 110,-46.4182 8.43333,-5.6515 15.90133,-10.6276 16.59556,-11.058 5.53572,-3.4321 -20.73283,23.3352 -131.53505,134.0323 l -127.12059,127 -7.30329,-0.1322 c -4.01681,-0.073 -14.80329,-1.226 -23.96996,-2.5632 z"
       id="path22"
       inkscape:connector-curvature="0" />
  </g>
</svg>
